<?xml version="1.0" standalone="no"?>
<!DOCTYPE svg PUBLIC "-//W3C//DTD SVG 20010904//EN"
 "http://www.w3.org/TR/2001/REC-SVG-20010904/DTD/svg10.dtd">
<svg version="1.0" xmlns="http://www.w3.org/2000/svg"
 width="512.000000pt" height="512.000000pt" viewBox="0 0 512.000000 512.000000"
 preserveAspectRatio="xMidYMid meet">

<g transform="translate(0.000000,512.000000) scale(0.100000,-0.100000)"
fill="#FFF" stroke="none">
<path d="M2450 5110 c-857 -89 -1525 -559 -1804 -1269 -74 -188 -136 -494
-136 -673 l0 -69 -105 -145 c-185 -253 -338 -501 -375 -608 -100 -292 98 -631
403 -687 49 -9 67 -17 67 -28 0 -87 45 -521 61 -581 66 -249 264 -455 514
-537 70 -22 103 -26 271 -32 185 -6 192 -7 231 -33 67 -44 87 -87 93 -204 5
-90 9 -107 35 -149 40 -64 90 -90 172 -90 52 0 68 5 104 30 68 48 89 99 89
215 0 179 -53 320 -166 440 -70 74 -160 131 -254 161 -52 17 -104 23 -255 28
-179 7 -193 9 -247 35 -113 54 -187 154 -207 277 -6 35 -20 179 -32 319 -23
278 -34 324 -94 403 -59 77 -182 137 -283 137 -66 0 -114 42 -127 112 -6 29 1
49 40 123 59 113 184 303 319 483 57 77 112 154 120 171 12 22 18 70 22 163 6
169 19 267 50 393 141 562 587 993 1198 1155 202 54 290 64 541 64 197 0 249
-3 360 -23 158 -28 324 -75 465 -131 92 -37 112 -41 167 -38 51 3 69 9 99 34
128 103 100 285 -54 349 -223 94 -444 155 -682 190 -125 19 -480 27 -600 15z"/>
<path d="M2715 4329 c-171 -16 -316 -88 -451 -223 -76 -77 -99 -107 -138 -186
-65 -134 -81 -200 -80 -345 0 -174 36 -291 134 -435 68 -100 199 -209 306
-255 181 -79 400 -86 594 -20 149 51 326 168 438 290 l59 65 84 -83 c215 -214
442 -317 695 -317 394 0 709 284 756 680 26 224 -62 464 -229 622 -152 143
-319 210 -529 209 -246 0 -476 -105 -686 -313 l-88 -86 -68 70 c-174 181 -408
307 -603 323 -35 4 -75 7 -89 9 -14 1 -61 -1 -105 -5z m174 -404 c65 -9 177
-64 257 -129 67 -54 194 -196 194 -219 0 -31 -161 -203 -244 -259 -93 -64
-167 -90 -271 -95 -75 -4 -99 -2 -147 16 -113 43 -189 127 -223 245 -57 197
79 412 282 446 47 7 64 7 152 -5z m1611 -21 c75 -34 115 -67 155 -127 71 -108
81 -236 26 -352 -96 -206 -340 -266 -566 -140 -73 41 -147 103 -221 187 -78
88 -82 99 -53 140 47 67 166 182 237 229 146 96 296 118 422 63z"/>
<path d="M4366 2456 c-74 -28 -118 -87 -235 -323 -69 -138 -112 -256 -143
-391 -21 -94 -22 -117 -25 -842 l-4 -745 23 -45 c13 -26 41 -57 66 -75 37 -25
53 -30 105 -30 102 0 171 50 197 144 6 22 10 290 10 712 0 734 2 768 56 928
14 42 56 132 92 201 36 69 78 149 94 179 36 69 36 120 2 189 -43 87 -149 131
-238 98z"/>
</g>
</svg>
