<?xml version="1.0" standalone="no"?>
<!DOCTYPE svg PUBLIC "-//W3C//DTD SVG 20010904//EN"
 "http://www.w3.org/TR/2001/REC-SVG-20010904/DTD/svg10.dtd">
<svg version="1.0" xmlns="http://www.w3.org/2000/svg"
 width="426.000000pt" height="426.000000pt" viewBox="0 0 426.000000 426.000000"
 preserveAspectRatio="xMidYMid meet">

<g transform="translate(0.000000,426.000000) scale(0.100000,-0.100000)"
fill="#000000" stroke="none">
<path d="M2060 4111 c-81 -25 -159 -101 -180 -176 -26 -94 9 -210 79 -267 l29
-23 -38 -240 c-21 -132 -35 -243 -31 -247 3 -4 32 -18 64 -32 42 -19 59 -23
62 -14 2 7 18 105 35 218 17 113 33 216 37 230 l6 25 8 -30 c4 -16 22 -124 40
-240 17 -115 33 -211 34 -212 1 -2 29 9 63 24 49 22 62 32 62 50 0 12 -16 121
-35 243 l-35 220 45 44 c74 74 95 197 49 288 -53 107 -189 171 -294 139z m115
-145 c110 -46 70 -216 -51 -216 -39 0 -51 5 -80 34 -26 26 -34 42 -34 70 0 51
25 95 63 111 41 18 60 18 102 1z"/>
<path d="M955 3422 c-176 -52 -307 -185 -359 -361 -25 -84 -21 -221 8 -302 74
-212 268 -349 491 -349 125 0 131 3 854 353 l114 55 -71 36 c-40 20 -78 36
-85 36 -8 0 -162 -71 -343 -159 -181 -87 -346 -164 -368 -171 -23 -8 -72 -11
-125 -8 -74 3 -95 9 -149 38 -281 150 -271 542 18 679 48 23 68 26 155 26
l100 0 887 -428 c488 -235 913 -434 945 -442 324 -84 643 163 643 499 0 300
-247 532 -545 513 -44 -3 -104 -13 -132 -23 -65 -23 -802 -377 -803 -385 0 -3
35 -21 77 -40 l78 -35 329 158 c180 87 353 165 384 174 170 50 363 -39 440
-204 24 -50 27 -69 27 -157 0 -93 -2 -105 -32 -166 -63 -127 -176 -200 -317
-207 -45 -3 -97 1 -120 8 -23 6 -423 196 -891 422 -467 226 -875 419 -905 430
-78 29 -225 34 -305 10z"/>
<path d="M2087 2699 l-37 -19 0 -1158 -1 -1157 -58 -63 -58 -63 -88 3 -89 3
82 86 82 87 0 1111 c0 611 -2 1111 -5 1111 -2 0 -34 -14 -70 -32 l-65 -32 0
-894 0 -894 -256 -274 -255 -274 -180 0 -179 0 0 -65 0 -65 1215 0 1215 0 0
65 0 65 -182 2 -182 3 -253 270 -253 270 0 895 0 896 -65 32 c-36 18 -68 32
-70 32 -3 0 -5 -500 -5 -1111 l0 -1111 80 -86 80 -87 -88 -3 -87 -3 -57 63
-58 63 0 1157 0 1158 -38 19 c-37 19 -38 19 -75 0z m-307 -2171 l0 -53 -108
-117 -107 -118 -48 0 c-27 0 -47 4 -45 9 3 9 300 331 305 331 2 0 3 -24 3 -52z
m853 -119 c81 -87 147 -160 147 -163 0 -3 -22 -6 -48 -6 l-48 0 -107 116
c-106 115 -107 116 -107 166 0 27 3 48 8 46 4 -1 74 -73 155 -159z"/>
<path d="M981 2323 c-5 -21 -85 -333 -177 -693 l-167 -655 12 -69 c24 -145
126 -277 261 -339 93 -43 220 -49 321 -17 79 26 169 86 212 143 49 65 89 163
95 233 4 59 -9 119 -169 749 l-174 685 -102 0 -102 0 -10 -37z m141 -295 c11
-9 57 -173 137 -487 67 -261 121 -478 121 -483 0 -4 -131 -8 -291 -8 -229 0
-290 3 -287 13 3 6 58 221 123 477 65 256 125 473 133 483 18 20 42 22 64 5z
m268 -1133 c0 -27 -47 -109 -82 -142 -106 -101 -309 -114 -359 -22 -16 31 -13
96 6 126 30 45 65 52 258 53 152 0 177 -2 177 -15z"/>
<path d="M2878 1668 c-170 -669 -176 -695 -167 -754 24 -169 144 -311 308
-364 60 -19 86 -22 164 -18 79 4 104 10 162 38 134 64 229 190 255 338 l11 62
-176 689 c-96 379 -175 691 -175 695 0 3 -46 6 -103 6 l-103 0 -176 -692z
m306 359 c12 -9 52 -151 140 -492 l122 -480 -284 -3 c-157 -1 -287 0 -290 3
-11 10 233 949 251 967 20 21 37 23 61 5z m271 -1139 c-24 -81 -114 -176 -192
-202 -58 -20 -153 -21 -198 -2 -59 25 -82 104 -49 167 26 51 58 58 262 59
l183 0 -6 -22z"/>
</g>
</svg>
